<?xml version="1.0" encoding="utf-8"?>
<!-- Generator: Adobe Illustrator 27.2.0, SVG Export Plug-In . SVG Version: 6.00 Build 0)  -->
<svg version="1.1" id="Calque_1" xmlns="http://www.w3.org/2000/svg" xmlns:xlink="http://www.w3.org/1999/xlink" x="0px" y="0px"
	 viewBox="0 0 504 333" style="enable-background:new 0 0 504 333;" xml:space="preserve">
<style type="text/css">
	.st0{opacity:8.000000e-02;fill:#FFFFFF;}
</style>
<circle class="st0" cx="167" cy="19.5" r="5.5"/>
<circle class="st0" cx="184" cy="19.5" r="5.5"/>
<circle class="st0" cx="201" cy="19.5" r="5.5"/>
<circle class="st0" cx="235" cy="19.5" r="5.5"/>
<circle class="st0" cx="218" cy="19.5" r="5.5"/>
<circle class="st0" cx="252" cy="19.5" r="5.5"/>
<circle class="st0" cx="286" cy="19.5" r="5.5"/>
<circle class="st0" cx="269" cy="19.5" r="5.5"/>
<circle class="st0" cx="303" cy="19.5" r="5.5"/>
<circle class="st0" cx="337" cy="19.5" r="5.5"/>
<circle class="st0" cx="320" cy="19.5" r="5.5"/>
<circle class="st0" cx="354" cy="19.5" r="5.5"/>
<circle class="st0" cx="388" cy="19.5" r="5.5"/>
<circle class="st0" cx="371" cy="19.5" r="5.5"/>
<circle class="st0" cx="405" cy="19.5" r="5.5"/>
<circle class="st0" cx="439" cy="19.5" r="5.5"/>
<circle class="st0" cx="422" cy="19.5" r="5.5"/>
<circle class="st0" cx="456" cy="19.5" r="5.5"/>
<circle class="st0" cx="490" cy="19.5" r="5.5"/>
<circle class="st0" cx="473" cy="19.5" r="5.5"/>
<circle class="st0" cx="201.5" cy="47.5" r="5.5"/>
<circle class="st0" cx="235.5" cy="47.5" r="5.5"/>
<circle class="st0" cx="218.5" cy="47.5" r="5.5"/>
<circle class="st0" cx="252.5" cy="47.5" r="5.5"/>
<circle class="st0" cx="286.5" cy="47.5" r="5.5"/>
<circle class="st0" cx="269.5" cy="47.5" r="5.5"/>
<circle class="st0" cx="303.5" cy="47.5" r="5.5"/>
<circle class="st0" cx="337.5" cy="47.5" r="5.5"/>
<circle class="st0" cx="320.5" cy="47.5" r="5.5"/>
<circle class="st0" cx="354.5" cy="47.5" r="5.5"/>
<circle class="st0" cx="388.5" cy="47.5" r="5.5"/>
<circle class="st0" cx="371.5" cy="47.5" r="5.5"/>
<circle class="st0" cx="405.5" cy="47.5" r="5.5"/>
<circle class="st0" cx="439.5" cy="47.5" r="5.5"/>
<circle class="st0" cx="422.5" cy="47.5" r="5.5"/>
<circle class="st0" cx="456.5" cy="47.5" r="5.5"/>
<circle class="st0" cx="473.5" cy="47.5" r="5.5"/>
<circle class="st0" cx="175.5" cy="5.5" r="5.5"/>
<circle class="st0" cx="158.5" cy="5.5" r="5.5"/>
<circle class="st0" cx="192.5" cy="5.5" r="5.5"/>
<circle class="st0" cx="226.5" cy="5.5" r="5.5"/>
<circle class="st0" cx="209.5" cy="5.5" r="5.5"/>
<circle class="st0" cx="243.5" cy="5.5" r="5.5"/>
<circle class="st0" cx="277.5" cy="5.5" r="5.5"/>
<circle class="st0" cx="260.5" cy="5.5" r="5.5"/>
<circle class="st0" cx="294.5" cy="5.5" r="5.5"/>
<circle class="st0" cx="328.5" cy="5.5" r="5.5"/>
<circle class="st0" cx="311.5" cy="5.5" r="5.5"/>
<circle class="st0" cx="345.5" cy="5.5" r="5.5"/>
<circle class="st0" cx="379.5" cy="5.5" r="5.5"/>
<circle class="st0" cx="362.5" cy="5.5" r="5.5"/>
<circle class="st0" cx="396.5" cy="5.5" r="5.5"/>
<circle class="st0" cx="430.5" cy="5.5" r="5.5"/>
<circle class="st0" cx="413.5" cy="5.5" r="5.5"/>
<circle class="st0" cx="447.5" cy="5.5" r="5.5"/>
<circle class="st0" cx="481.5" cy="5.5" r="5.5"/>
<circle class="st0" cx="464.5" cy="5.5" r="5.5"/>
<circle class="st0" cx="498.5" cy="5.5" r="5.5"/>
<circle class="st0" cx="192.5" cy="33.5" r="5.5"/>
<circle class="st0" cx="226.5" cy="33.5" r="5.5"/>
<circle class="st0" cx="209.5" cy="33.5" r="5.5"/>
<circle class="st0" cx="243.5" cy="33.5" r="5.5"/>
<circle class="st0" cx="277.5" cy="33.5" r="5.5"/>
<circle class="st0" cx="260.5" cy="33.5" r="5.5"/>
<circle class="st0" cx="294.5" cy="33.5" r="5.5"/>
<circle class="st0" cx="328.5" cy="33.5" r="5.5"/>
<circle class="st0" cx="311.5" cy="33.5" r="5.5"/>
<circle class="st0" cx="14" cy="19.5" r="5.5"/>
<circle class="st0" cx="22.5" cy="5.5" r="5.5"/>
<circle class="st0" cx="5.5" cy="5.5" r="5.5"/>
<circle class="st0" cx="39.5" cy="5.5" r="5.5"/>
<circle class="st0" cx="345.5" cy="33.5" r="5.5"/>
<circle class="st0" cx="379.5" cy="33.5" r="5.5"/>
<circle class="st0" cx="362.5" cy="33.5" r="5.5"/>
<circle class="st0" cx="396.5" cy="33.5" r="5.5"/>
<circle class="st0" cx="430.5" cy="33.5" r="5.5"/>
<circle class="st0" cx="413.5" cy="33.5" r="5.5"/>
<circle class="st0" cx="447.5" cy="33.5" r="5.5"/>
<circle class="st0" cx="481.5" cy="33.5" r="5.5"/>
<circle class="st0" cx="464.5" cy="33.5" r="5.5"/>
<circle class="st0" cx="498.5" cy="33.5" r="5.5"/>
<circle class="st0" cx="201" cy="75.5" r="5.5"/>
<circle class="st0" cx="235" cy="75.5" r="5.5"/>
<circle class="st0" cx="218" cy="75.5" r="5.5"/>
<circle class="st0" cx="252" cy="75.5" r="5.5"/>
<circle class="st0" cx="286" cy="75.5" r="5.5"/>
<circle class="st0" cx="269" cy="75.5" r="5.5"/>
<circle class="st0" cx="303" cy="75.5" r="5.5"/>
<circle class="st0" cx="337" cy="75.5" r="5.5"/>
<circle class="st0" cx="320" cy="75.5" r="5.5"/>
<circle class="st0" cx="354" cy="75.5" r="5.5"/>
<circle class="st0" cx="388" cy="75.5" r="5.5"/>
<circle class="st0" cx="371" cy="75.5" r="5.5"/>
<circle class="st0" cx="405" cy="75.5" r="5.5"/>
<circle class="st0" cx="439" cy="75.5" r="5.5"/>
<circle class="st0" cx="422" cy="75.5" r="5.5"/>
<circle class="st0" cx="456" cy="75.5" r="5.5"/>
<circle class="st0" cx="473" cy="75.5" r="5.5"/>
<circle class="st0" cx="201.5" cy="103.5" r="5.5"/>
<circle class="st0" cx="235.5" cy="103.5" r="5.5"/>
<circle class="st0" cx="218.5" cy="103.5" r="5.5"/>
<circle class="st0" cx="252.5" cy="103.5" r="5.5"/>
<circle class="st0" cx="286.5" cy="103.5" r="5.5"/>
<circle class="st0" cx="269.5" cy="103.5" r="5.5"/>
<circle class="st0" cx="303.5" cy="103.5" r="5.5"/>
<circle class="st0" cx="337.5" cy="103.5" r="5.5"/>
<circle class="st0" cx="320.5" cy="103.5" r="5.5"/>
<circle class="st0" cx="354.5" cy="103.5" r="5.5"/>
<circle class="st0" cx="388.5" cy="103.5" r="5.5"/>
<circle class="st0" cx="371.5" cy="103.5" r="5.5"/>
<circle class="st0" cx="405.5" cy="103.5" r="5.5"/>
<circle class="st0" cx="422.5" cy="103.5" r="5.5"/>
<circle class="st0" cx="226.5" cy="61.5" r="5.5"/>
<circle class="st0" cx="209.5" cy="61.5" r="5.5"/>
<circle class="st0" cx="243.5" cy="61.5" r="5.5"/>
<circle class="st0" cx="277.5" cy="61.5" r="5.5"/>
<circle class="st0" cx="260.5" cy="61.5" r="5.5"/>
<circle class="st0" cx="294.5" cy="61.5" r="5.5"/>
<circle class="st0" cx="328.5" cy="61.5" r="5.5"/>
<circle class="st0" cx="311.5" cy="61.5" r="5.5"/>
<circle class="st0" cx="345.5" cy="61.5" r="5.5"/>
<circle class="st0" cx="379.5" cy="61.5" r="5.5"/>
<circle class="st0" cx="362.5" cy="61.5" r="5.5"/>
<circle class="st0" cx="396.5" cy="61.5" r="5.5"/>
<circle class="st0" cx="430.5" cy="61.5" r="5.5"/>
<circle class="st0" cx="413.5" cy="61.5" r="5.5"/>
<circle class="st0" cx="447.5" cy="61.5" r="5.5"/>
<circle class="st0" cx="481.5" cy="61.5" r="5.5"/>
<circle class="st0" cx="464.5" cy="61.5" r="5.5"/>
<circle class="st0" cx="226.5" cy="89.5" r="5.5"/>
<circle class="st0" cx="209.5" cy="89.5" r="5.5"/>
<circle class="st0" cx="243.5" cy="89.5" r="5.5"/>
<circle class="st0" cx="277.5" cy="89.5" r="5.5"/>
<circle class="st0" cx="260.5" cy="89.5" r="5.5"/>
<circle class="st0" cx="294.5" cy="89.5" r="5.5"/>
<circle class="st0" cx="328.5" cy="89.5" r="5.5"/>
<circle class="st0" cx="311.5" cy="89.5" r="5.5"/>
<circle class="st0" cx="345.5" cy="89.5" r="5.5"/>
<circle class="st0" cx="379.5" cy="89.5" r="5.5"/>
<circle class="st0" cx="362.5" cy="89.5" r="5.5"/>
<circle class="st0" cx="396.5" cy="89.5" r="5.5"/>
<circle class="st0" cx="430.5" cy="89.5" r="5.5"/>
<circle class="st0" cx="413.5" cy="89.5" r="5.5"/>
<circle class="st0" cx="447.5" cy="89.5" r="5.5"/>
<circle class="st0" cx="235" cy="131.5" r="5.5"/>
<circle class="st0" cx="252" cy="131.5" r="5.5"/>
<circle class="st0" cx="286" cy="131.5" r="5.5"/>
<circle class="st0" cx="269" cy="131.5" r="5.5"/>
<circle class="st0" cx="303" cy="131.5" r="5.5"/>
<circle class="st0" cx="337" cy="131.5" r="5.5"/>
<circle class="st0" cx="320" cy="131.5" r="5.5"/>
<circle class="st0" cx="354" cy="131.5" r="5.5"/>
<circle class="st0" cx="388" cy="131.5" r="5.5"/>
<circle class="st0" cx="371" cy="131.5" r="5.5"/>
<circle class="st0" cx="405" cy="131.5" r="5.5"/>
<circle class="st0" cx="252.5" cy="159.5" r="5.5"/>
<circle class="st0" cx="286.5" cy="159.5" r="5.5"/>
<circle class="st0" cx="269.5" cy="159.5" r="5.5"/>
<circle class="st0" cx="303.5" cy="159.5" r="5.5"/>
<circle class="st0" cx="320.5" cy="159.5" r="5.5"/>
<circle class="st0" cx="388.5" cy="159.5" r="5.5"/>
<circle class="st0" cx="405.5" cy="159.5" r="5.5"/>
<circle class="st0" cx="226.5" cy="117.5" r="5.5"/>
<circle class="st0" cx="209.5" cy="117.5" r="5.5"/>
<circle class="st0" cx="243.5" cy="117.5" r="5.5"/>
<circle class="st0" cx="277.5" cy="117.5" r="5.5"/>
<circle class="st0" cx="260.5" cy="117.5" r="5.5"/>
<circle class="st0" cx="294.5" cy="117.5" r="5.5"/>
<circle class="st0" cx="328.5" cy="117.5" r="5.5"/>
<circle class="st0" cx="311.5" cy="117.5" r="5.5"/>
<circle class="st0" cx="345.5" cy="117.5" r="5.5"/>
<circle class="st0" cx="379.5" cy="117.5" r="5.5"/>
<circle class="st0" cx="362.5" cy="117.5" r="5.5"/>
<circle class="st0" cx="396.5" cy="117.5" r="5.5"/>
<circle class="st0" cx="413.5" cy="117.5" r="5.5"/>
<circle class="st0" cx="243.5" cy="145.5" r="5.5"/>
<circle class="st0" cx="277.5" cy="145.5" r="5.5"/>
<circle class="st0" cx="260.5" cy="145.5" r="5.5"/>
<circle class="st0" cx="294.5" cy="145.5" r="5.5"/>
<circle class="st0" cx="328.5" cy="145.5" r="5.5"/>
<circle class="st0" cx="311.5" cy="145.5" r="5.5"/>
<circle class="st0" cx="345.5" cy="145.5" r="5.5"/>
<circle class="st0" cx="379.5" cy="145.5" r="5.5"/>
<circle class="st0" cx="362.5" cy="145.5" r="5.5"/>
<circle class="st0" cx="396.5" cy="145.5" r="5.5"/>
<circle class="st0" cx="286" cy="187.5" r="5.5"/>
<circle class="st0" cx="303" cy="187.5" r="5.5"/>
<circle class="st0" cx="320" cy="187.5" r="5.5"/>
<circle class="st0" cx="354" cy="187.5" r="5.5"/>
<circle class="st0" cx="371" cy="187.5" r="5.5"/>
<circle class="st0" cx="405" cy="187.5" r="5.5"/>
<circle class="st0" cx="422" cy="187.5" r="5.5"/>
<circle class="st0" cx="337.5" cy="215.5" r="5.5"/>
<circle class="st0" cx="354.5" cy="215.5" r="5.5"/>
<circle class="st0" cx="388.5" cy="215.5" r="5.5"/>
<circle class="st0" cx="371.5" cy="215.5" r="5.5"/>
<circle class="st0" cx="490.5" cy="215.5" r="5.5"/>
<circle class="st0" cx="277.5" cy="173.5" r="5.5"/>
<circle class="st0" cx="260.5" cy="173.5" r="5.5"/>
<circle class="st0" cx="294.5" cy="173.5" r="5.5"/>
<circle class="st0" cx="311.5" cy="173.5" r="5.5"/>
<circle class="st0" cx="396.5" cy="173.5" r="5.5"/>
<circle class="st0" cx="413.5" cy="173.5" r="5.5"/>
<circle class="st0" cx="294.5" cy="201.5" r="5.5"/>
<circle class="st0" cx="328.5" cy="201.5" r="5.5"/>
<circle class="st0" cx="311.5" cy="201.5" r="5.5"/>
<circle class="st0" cx="345.5" cy="201.5" r="5.5"/>
<circle class="st0" cx="362.5" cy="201.5" r="5.5"/>
<circle class="st0" cx="430.5" cy="201.5" r="5.5"/>
<circle class="st0" cx="413.5" cy="201.5" r="5.5"/>
<circle class="st0" cx="447.5" cy="201.5" r="5.5"/>
<circle class="st0" cx="388" cy="243.5" r="5.5"/>
<circle class="st0" cx="405" cy="243.5" r="5.5"/>
<circle class="st0" cx="439" cy="243.5" r="5.5"/>
<circle class="st0" cx="439.1" cy="187.5" r="5.5"/>
<circle class="st0" cx="422" cy="243.5" r="5.5"/>
<circle class="st0" cx="456" cy="243.5" r="5.5"/>
<circle class="st0" cx="490" cy="243.5" r="5.5"/>
<circle class="st0" cx="473" cy="243.5" r="5.5"/>
<circle class="st0" cx="405.5" cy="271.5" r="5.5"/>
<circle class="st0" cx="439.5" cy="271.5" r="5.5"/>
<circle class="st0" cx="422.5" cy="271.5" r="5.5"/>
<circle class="st0" cx="456.5" cy="271.5" r="5.5"/>
<circle class="st0" cx="490.5" cy="271.5" r="5.5"/>
<circle class="st0" cx="473.5" cy="271.5" r="5.5"/>
<circle class="st0" cx="379.5" cy="229.5" r="5.5"/>
<circle class="st0" cx="498.5" cy="229.5" r="5.5"/>
<circle class="st0" cx="430.5" cy="257.5" r="5.5"/>
<circle class="st0" cx="413.5" cy="257.5" r="5.5"/>
<circle class="st0" cx="447.5" cy="257.5" r="5.5"/>
<circle class="st0" cx="481.5" cy="257.5" r="5.5"/>
<circle class="st0" cx="464.5" cy="257.5" r="5.5"/>
<circle class="st0" cx="447.1" cy="229.1" r="5.5"/>
<circle class="st0" cx="481.1" cy="229.1" r="5.5"/>
<circle class="st0" cx="464.1" cy="229.1" r="5.5"/>
<circle class="st0" cx="481.1" cy="201.5" r="5.5"/>
<circle class="st0" cx="464.1" cy="201.5" r="5.5"/>
<circle class="st0" cx="498.5" cy="257.5" r="5.5"/>
<circle class="st0" cx="405" cy="299.5" r="5.5"/>
<circle class="st0" cx="439" cy="299.5" r="5.5"/>
<circle class="st0" cx="422" cy="299.5" r="5.5"/>
<circle class="st0" cx="456" cy="299.5" r="5.5"/>
<circle class="st0" cx="490" cy="299.5" r="5.5"/>
<circle class="st0" cx="473" cy="299.5" r="5.5"/>
<circle class="st0" cx="405.5" cy="327.5" r="5.5"/>
<circle class="st0" cx="439.5" cy="327.5" r="5.5"/>
<circle class="st0" cx="422.5" cy="327.5" r="5.5"/>
<circle class="st0" cx="456.5" cy="327.5" r="5.5"/>
<circle class="st0" cx="490.5" cy="327.5" r="5.5"/>
<circle class="st0" cx="473.5" cy="327.5" r="5.5"/>
<circle class="st0" cx="396.5" cy="285.5" r="5.5"/>
<circle class="st0" cx="430.5" cy="285.5" r="5.5"/>
<circle class="st0" cx="413.5" cy="285.5" r="5.5"/>
<circle class="st0" cx="447.5" cy="285.5" r="5.5"/>
<circle class="st0" cx="481.5" cy="285.5" r="5.5"/>
<circle class="st0" cx="464.5" cy="285.5" r="5.5"/>
<circle class="st0" cx="498.5" cy="285.5" r="5.5"/>
<circle class="st0" cx="396.5" cy="313.5" r="5.5"/>
<circle class="st0" cx="430.5" cy="313.5" r="5.5"/>
<circle class="st0" cx="413.5" cy="313.5" r="5.5"/>
<circle class="st0" cx="447.5" cy="313.5" r="5.5"/>
<circle class="st0" cx="481.5" cy="313.5" r="5.5"/>
<circle class="st0" cx="464.5" cy="313.5" r="5.5"/>
<circle class="st0" cx="498.5" cy="313.5" r="5.5"/>
</svg>
